<?xml version="1.0" encoding="UTF-8" standalone="no"?>
<!DOCTYPE svg PUBLIC "-//W3C//DTD SVG 20010904//EN"
"http://www.w3.org/TR/2001/REC-SVG-20010904/DTD/svg10.dtd">
<!-- Created with Inkscape (http://www.inkscape.org/) -->
<svg
   id="svg1"
   sodipodi:version="0.32"
   inkscape:version="0.39cvs"
   width="600.00000pt"
   height="600.00000pt"
   sodipodi:docname="chamatz.svg"
   xmlns="http://www.w3.org/2000/svg"
   xmlns:cc="http://web.resource.org/cc/"
   xmlns:inkscape="http://www.inkscape.org/namespaces/inkscape"
   xmlns:sodipodi="http://sodipodi.sourceforge.net/DTD/sodipodi-0.dtd"
   xmlns:rdf="http://www.w3.org/1999/02/22-rdf-syntax-ns#"
   xmlns:dc="http://purl.org/dc/elements/1.1/"
   xmlns:xlink="http://www.w3.org/1999/xlink"
   sodipodi:docbase="D:\sqba\Projekti\Floopy!">
  <defs
     id="defs3" />
  <sodipodi:namedview
     id="base"
     pagecolor="#ffffff"
     bordercolor="#666666"
     borderopacity="1.0"
     inkscape:pageopacity="0.0"
     inkscape:pageshadow="2"
     inkscape:zoom="0.93166667"
     inkscape:cx="310.45164"
     inkscape:cy="300.00000"
     inkscape:window-width="1024"
     inkscape:window-height="721"
     showguides="true"
     inkscape:guide-bbox="true"
     gridspacingy="14.173228pt"
     gridspacingx="14.173228pt"
     gridoriginy="0.00000000pt"
     gridoriginx="0.00000000pt"
     inkscape:window-x="-4"
     inkscape:window-y="-4" />
  <metadata
     id="metadata4">
    <rdf:RDF
       id="RDF5">
      <cc:Work
         rdf:about=""
         id="Work6">
        <dc:format
           id="format7">image/svg+xml</dc:format>
        <dc:type
           id="type9"
           rdf:resource="http://purl.org/dc/dcmitype/StillImage" />
      </cc:Work>
    </rdf:RDF>
  </metadata>
  <path
     style="fill:#000000;fill-opacity:1.0000000;fill-rule:evenodd;stroke:none;stroke-width:1.0000000pt;stroke-linecap:butt;stroke-linejoin:miter;stroke-opacity:1.0000000;"
     d="M 375.46875,53.000000 C 190.13187,53.000000 39.591520,170.71422 37.750000,316.31250 C 37.011790,324.16063 36.562500,332.10606 36.562500,340.18750 C 36.562500,455.35724 113.56008,549.19525 209.59375,552.84375 C 237.26261,642.84548 302.62851,706.28125 379.00000,706.28125 C 455.35673,706.28124 520.57789,642.79032 548.25000,552.81250 C 643.87629,548.62930 720.43750,455.00754 720.43750,340.18750 C 720.43750,295.29155 708.65533,253.71972 688.68750,219.37500 C 638.56260,121.87303 517.19977,53.000000 375.46875,53.000000 z M 273.12500,353.18750 C 304.03097,362.10109 339.43589,367.28125 377.25000,367.28125 C 414.81388,367.28125 449.96232,362.15015 480.71875,353.34375 C 485.71559,377.50690 494.39034,398.00404 505.40625,412.62500 C 501.18625,412.40672 496.96165,412.18750 492.56250,412.18750 C 488.78574,412.18750 485.07598,412.27410 481.43750,412.43750 C 469.02163,411.40506 453.83996,412.62953 437.75000,416.71875 C 407.04020,424.52356 383.51270,439.72325 379.34375,453.18750 C 379.05642,453.70541 378.65616,454.14926 378.40625,454.68750 C 376.75924,449.92623 373.70249,445.81034 369.68750,442.71875 C 369.65839,442.69634 369.65421,442.64730 369.62500,442.62500 C 369.61986,442.61979 369.59889,442.63021 369.59375,442.62500 C 359.61009,432.50183 340.83843,422.71748 318.21875,416.96875 C 301.03758,412.60221 284.82283,411.42530 272.00000,412.87500 C 269.86895,412.82006 267.76867,412.71875 265.59375,412.71875 C 259.34980,412.71875 253.30016,412.97340 247.43750,413.40625 C 258.89539,398.80093 267.95456,377.93322 273.12500,353.18750 z M 378.28125,493.53125 C 383.77999,493.53125 388.50682,496.31012 391.03125,500.37500 C 392.90114,502.37349 394.82279,504.37575 397.09375,506.25000 C 405.45474,513.15044 414.38479,517.36978 421.75000,518.62500 C 433.33388,524.93932 456.16364,525.69979 481.21875,519.37500 C 491.48283,516.78399 500.71143,513.25699 508.75000,509.31250 C 495.80700,604.92568 441.70794,676.90625 376.65625,676.90625 C 310.39626,676.90625 255.48234,602.24012 243.87500,503.96875 C 253.34220,509.69823 265.52500,514.83964 279.40625,518.34375 C 302.41168,524.15113 323.64073,524.03265 335.93750,519.09375 C 342.95562,517.49891 351.18671,513.33979 358.90625,506.96875 C 361.28469,505.00579 363.29507,502.90951 365.25000,500.81250 C 367.69494,496.50835 372.58739,493.53125 378.28125,493.53125 z M 352.43750,553.21875 C 338.72358,553.21872 327.39076,562.14759 325.15625,573.81250 L 376.28125,573.81250 L 379.68750,573.81250 L 429.65625,573.81250 C 427.46824,562.14754 416.39735,553.21873 402.96875,553.21875 C 391.60898,553.21872 382.00323,559.65721 377.96875,568.68750 C 373.84939,559.65558 364.03993,553.21873 352.43750,553.21875 z M 338.71875,606.21875 C 343.93110,630.73364 359.11753,648.62500 377.25000,648.62500 C 395.38328,648.62500 410.56958,630.73532 415.78125,606.21875 L 338.71875,606.21875 z "
     id="chamatz" />
</svg>
